<?xml version="1.0" encoding="UTF-8"?>
<svg version="1.1" xmlns="http://www.w3.org/2000/svg" width="106" height="104">
<path d="M0 0 C11.55 0 23.1 0 35 0 C36.48679725 2.97359449 36.11112605 5.66299179 36.09765625 8.9765625 C36.0962413 9.66181 36.09482635 10.3470575 36.09336853 11.05307007 C36.08776675 13.24375761 36.07521406 15.4343433 36.0625 17.625 C36.05748522 19.10937352 36.05292228 20.59374865 36.04882812 22.078125 C36.03779677 25.71878315 36.02053099 29.35938164 36 33 C37.74023438 32.89171875 37.74023438 32.89171875 39.515625 32.78125 C64.87568436 31.25045624 64.87568436 31.25045624 69 34 C70.6614443 38.98433289 70.22509154 44.17686561 70.24023438 49.39672852 C70.2499498 51.42701034 70.28099209 53.4562833 70.3125 55.48632812 C70.32023437 57.40928711 70.32023437 57.40928711 70.328125 59.37109375 C70.3374707 60.54599365 70.34681641 61.72089355 70.35644531 62.93139648 C69.95668932 66.37285753 69.66131143 67.77012465 67 70 C63.8137207 70.45410156 63.8137207 70.45410156 59.92578125 70.390625 C59.2419487 70.38496521 58.55811615 70.37930542 57.8535614 70.37347412 C55.67249101 70.35110816 53.49307247 70.30091765 51.3125 70.25 C49.83270605 70.229935 48.3528863 70.21168422 46.87304688 70.1953125 C43.2481624 70.15124474 39.62424244 70.08221822 36 70 C36.01047363 70.89307861 36.02094727 71.78615723 36.03173828 72.70629883 C36.06583592 76.02175477 36.09090637 79.33702421 36.10986328 82.65258789 C36.119917 84.08718812 36.13356194 85.52176789 36.15087891 86.95629883 C36.17515549 89.01909438 36.18648919 91.08161885 36.1953125 93.14453125 C36.20578613 94.38565674 36.21625977 95.62678223 36.22705078 96.90551758 C36 100 36 100 34 103 C31.46953177 103.29216869 29.1870712 103.3963314 26.65625 103.36328125 C25.56890564 103.36402901 25.56890564 103.36402901 24.45959473 103.36479187 C22.92632304 103.36245041 21.39304759 103.35271756 19.85986328 103.33618164 C17.50909155 103.31259124 15.15945371 103.31561921 12.80859375 103.32226562 C11.32030572 103.31668885 9.83202248 103.30957897 8.34375 103.30078125 C7.63851196 103.30169266 6.93327393 103.30260406 6.20666504 103.30354309 C1.23103221 103.23103221 1.23103221 103.23103221 -1 101 C-1.22705078 97.92724609 -1.22705078 97.92724609 -1.1953125 94.0234375 C-1.1924826 93.33819 -1.18965271 92.6529425 -1.18673706 91.94692993 C-1.17553281 89.75610973 -1.15042859 87.56569684 -1.125 85.375 C-1.11497048 83.8906309 -1.10584458 82.4062554 -1.09765625 80.921875 C-1.07559294 77.28111739 -1.04106176 73.64059844 -1 70 C-1.9286084 70.00523682 -2.8572168 70.01047363 -3.81396484 70.01586914 C-7.25423805 70.03289593 -10.69446659 70.04544273 -14.13476562 70.05493164 C-15.62468166 70.05996514 -17.11459274 70.06679242 -18.60449219 70.07543945 C-20.74415304 70.08754805 -22.88374868 70.09323807 -25.0234375 70.09765625 C-26.31169434 70.10289307 -27.59995117 70.10812988 -28.92724609 70.11352539 C-32 70 -32 70 -34 69 C-35.69645913 63.91062262 -35.2646986 58.50284818 -35.29516602 53.17602539 C-35.30670816 51.76869673 -35.32719564 50.36141261 -35.35668945 48.9543457 C-35.39935657 46.91848076 -35.41552956 44.88391267 -35.42578125 42.84765625 C-35.44036377 41.63086182 -35.45494629 40.41406738 -35.4699707 39.16040039 C-35 36 -35 36 -33.40795898 33.58276367 C-30.11104309 31.41568411 -27.96528485 31.62888382 -24.046875 31.828125 C-23.05654266 31.86990875 -23.05654266 31.86990875 -22.04620361 31.91253662 C-19.94602159 32.00560588 -17.84864286 32.12737078 -15.75 32.25 C-14.32300637 32.31830664 -12.89592146 32.38473417 -11.46875 32.44921875 C-7.97784539 32.61105425 -4.48887368 32.79864577 -1 33 C-1.00523682 32.0713916 -1.01047363 31.1427832 -1.01586914 30.18603516 C-1.03289593 26.74576195 -1.04544273 23.30553341 -1.05493164 19.86523438 C-1.05996514 18.37531834 -1.06679242 16.88540726 -1.07543945 15.39550781 C-1.08754805 13.25584696 -1.09323807 11.11625132 -1.09765625 8.9765625 C-1.10289307 7.68830566 -1.10812988 6.40004883 -1.11352539 5.07275391 C-1 2 -1 2 0 0 Z " fill="#D1BA72" transform="translate(35,0)"/>
<path d="M0 0 C0.99 0.165 1.98 0.33 3 0.5 C1.1875 1.5625 1.1875 1.5625 -1 2.5 C-1.99 2.17 -2.98 1.84 -4 1.5 C-4.33 2.82 -4.66 4.14 -5 5.5 C-6.98 4.51 -8.96 3.52 -11 2.5 C-11.76648373 4.79945119 -12.0587898 6.23348625 -11.53125 8.625 C-10.84075605 12.36179081 -10.89354625 16.02909652 -10.9375 19.8125 C-10.94201172 20.55306641 -10.94652344 21.29363281 -10.95117188 22.05664062 C-10.96287825 23.87112899 -10.98081102 25.68557534 -11 27.5 C-9.02 27.5 -7.04 27.5 -5 27.5 C-5 28.16 -5 28.82 -5 29.5 C-6.65 29.5 -8.3 29.5 -10 29.5 C-10.33 30.16 -10.66 30.82 -11 31.5 C-11.33 31.17 -11.66 30.84 -12 30.5 C-12.33 32.48 -12.66 34.46 -13 36.5 C-13.66 36.5 -14.32 36.5 -15 36.5 C-16.69645913 31.41062262 -16.2646986 26.00284818 -16.29516602 20.67602539 C-16.30670816 19.26869673 -16.32719564 17.86141261 -16.35668945 16.4543457 C-16.39935657 14.41848076 -16.41552956 12.38391267 -16.42578125 10.34765625 C-16.44036377 9.13086182 -16.45494629 7.91406738 -16.4699707 6.66040039 C-16 3.5 -16 3.5 -14.21166992 1.09155273 C-10.04627054 -1.90593469 -4.83504014 -0.6570947 0 0 Z " fill="#8F6630" transform="translate(16,32.5)"/>
<path d="M0 0 C1.60379341 -0.05416188 3.20811406 -0.09286638 4.8125 -0.125 C5.70582031 -0.14820312 6.59914063 -0.17140625 7.51953125 -0.1953125 C10 0 10 0 13 2 C14.6614443 6.98433289 14.22509154 12.17686561 14.24023438 17.39672852 C14.2499498 19.42701034 14.28099209 21.4562833 14.3125 23.48632812 C14.31765625 24.76830078 14.3228125 26.05027344 14.328125 27.37109375 C14.3374707 28.54599365 14.34681641 29.72089355 14.35644531 30.93139648 C13.96764579 34.2785343 13.42468977 35.68709421 11 38 C7.8125 38.25 7.8125 38.25 5 38 C6.98 37.505 6.98 37.505 9 37 C9 36.01 9 35.02 9 34 C9.99 33.505 9.99 33.505 11 33 C10.66097656 32.07960937 10.32195312 31.15921875 9.97265625 30.2109375 C8.4922793 25.03287892 9.06598079 19.93737746 9.4375 14.625 C9.56563315 12.63830192 9.68957184 10.65132725 9.80859375 8.6640625 C9.86845459 7.79217285 9.92831543 6.9202832 9.98999023 6.02197266 C9.99329346 5.35472168 9.99659668 4.6874707 10 4 C8.41727399 2.41727399 6.61965997 2.65264253 4.4375 2.4375 C3.61121094 2.35371094 2.78492187 2.26992188 1.93359375 2.18359375 C1.29550781 2.12300781 0.65742187 2.06242187 0 2 C0 1.34 0 0.68 0 0 Z " fill="#936327" transform="translate(91,32)"/>
<path d="M0 0 C0.33 0 0.66 0 1 0 C1 9.57 1 19.14 1 29 C2.32 28.67 3.64 28.34 5 28 C5.99 28.66 6.98 29.32 8 30 C10.58193985 30.3083862 10.58193985 30.3083862 13.47265625 30.265625 C14.53677734 30.26820312 15.60089844 30.27078125 16.69726562 30.2734375 C17.80779297 30.26570313 18.91832031 30.25796875 20.0625 30.25 C21.17689453 30.25773437 22.29128906 30.26546875 23.43945312 30.2734375 C25.03370117 30.26957031 25.03370117 30.26957031 26.66015625 30.265625 C27.63605713 30.26336914 28.61195801 30.26111328 29.61743164 30.25878906 C32.18620826 30.23153639 32.18620826 30.23153639 34 28 C34.45811675 26.02764667 34.45811675 26.02764667 34.625 23.875 C34.810625 21.956875 34.810625 21.956875 35 20 C35.33 20 35.66 20 36 20 C36.05416188 21.60379341 36.09286638 23.20811406 36.125 24.8125 C36.14820313 25.70582031 36.17140625 26.59914063 36.1953125 27.51953125 C36 30 36 30 34 33 C31.46953177 33.29216869 29.1870712 33.3963314 26.65625 33.36328125 C25.93135376 33.36377975 25.20645752 33.36427826 24.45959473 33.36479187 C22.92632304 33.36245041 21.39304759 33.35271756 19.85986328 33.33618164 C17.50909155 33.31259124 15.15945371 33.31561921 12.80859375 33.32226562 C11.32030572 33.31668885 9.83202248 33.30957897 8.34375 33.30078125 C7.63851196 33.30169266 6.93327393 33.30260406 6.20666504 33.30354309 C1.23103221 33.23103221 1.23103221 33.23103221 -1 31 C-1.24291992 28.03491211 -1.24291992 28.03491211 -1.23046875 24.27734375 C-1.23001053 23.61666397 -1.22955231 22.95598419 -1.2290802 22.27528381 C-1.22605921 20.87906091 -1.21817742 19.48284133 -1.20581055 18.08666992 C-1.18754196 15.94242502 -1.18530094 13.79861151 -1.18554688 11.65429688 C-1.14743212 1.14743212 -1.14743212 1.14743212 0 0 Z " fill="#CABB84" transform="translate(35,70)"/>
<path d="M0 0 C10.56 0 21.12 0 32 0 C31.67 0.66 31.34 1.32 31 2 C27.66668561 2.02937438 24.33340517 2.04692334 21 2.0625 C20.06542969 2.07087891 19.13085938 2.07925781 18.16796875 2.08789062 C12.67725599 2.10708892 7.43133519 1.8134193 2 1 C2.78130071 3.49552484 2.78130071 3.49552484 4 6 C4.99 6.33 5.98 6.66 7 7 C6.360625 7.28875 5.72125 7.5775 5.0625 7.875 C2.84793921 8.82823451 2.84793921 8.82823451 2 11 C1.84777027 12.66565749 1.75082785 14.33656496 1.68359375 16.0078125 C1.64169922 16.99394531 1.59980469 17.98007812 1.55664062 18.99609375 C1.51732422 20.02863281 1.47800781 21.06117187 1.4375 22.125 C1.39431641 23.16527344 1.35113281 24.20554687 1.30664062 25.27734375 C1.2003712 27.85142528 1.09833417 30.42560508 1 33 C0.67 33 0.34 33 0 33 C-0.82461178 25.62266958 -1.10817683 18.29191627 -1.125 10.875 C-1.12951172 10.03348389 -1.13402344 9.19196777 -1.13867188 8.32495117 C-1.12380528 2.24761056 -1.12380528 2.24761056 0 0 Z " fill="#D7C98A" transform="translate(35,0)"/>
<path d="M0 0 C3.35162124 3.35162124 2.29711433 7.73439074 2.32226562 12.2890625 C2.32009033 12.95969727 2.31791504 13.63033203 2.31567383 14.32128906 C2.31252229 16.36057382 2.33593792 18.39839562 2.36132812 20.4375 C2.36197266 21.72398438 2.36261719 23.01046875 2.36328125 24.3359375 C2.36626221 25.51720215 2.36924316 26.6984668 2.37231445 27.91552734 C1.96811453 31.26415806 1.42712934 32.68491376 -1 35 C-4.1875 35.25 -4.1875 35.25 -7 35 C-5.02 34.505 -5.02 34.505 -3 34 C-3 33.01 -3 32.02 -3 31 C-2.34 30.67 -1.68 30.34 -1 30 C-0.67 20.1 -0.34 10.2 0 0 Z " fill="#79512F" transform="translate(103,35)"/>
<path d="M0 0 C-1.8125 1.0625 -1.8125 1.0625 -4 2 C-4.99 1.67 -5.98 1.34 -7 1 C-7.33 2.32 -7.66 3.64 -8 5 C-9.98 4.01 -11.96 3.02 -14 2 C-14.12375 2.5775 -14.2475 3.155 -14.375 3.75 C-15.00648824 6.02335767 -15.88858191 7.9253529 -17 10 C-17.66 10 -18.32 10 -19 10 C-19.47863248 3.77777778 -19.47863248 3.77777778 -17.5 0.5625 C-12.34900829 -2.65686982 -5.73007137 -0.9550119 0 0 Z " fill="#93602C" transform="translate(19,33)"/>
<path d="M0 0 C0.33 0 0.66 0 1 0 C1.05416188 1.60379341 1.09286638 3.20811406 1.125 4.8125 C1.14820312 5.70582031 1.17140625 6.59914063 1.1953125 7.51953125 C1 10 1 10 -1 13 C-3.61376953 13.34057617 -3.61376953 13.34057617 -6.8828125 13.29296875 C-8.04941406 13.28330078 -9.21601562 13.27363281 -10.41796875 13.26367188 C-11.64128906 13.23853516 -12.86460938 13.21339844 -14.125 13.1875 C-15.35605469 13.17396484 -16.58710937 13.16042969 -17.85546875 13.14648438 C-20.90407843 13.11103543 -23.951825 13.06162079 -27 13 C-24.48083112 10.48083112 -23.55029911 10.72880823 -20.0625 10.65625 C-19.08539063 10.62660156 -18.10828125 10.59695312 -17.1015625 10.56640625 C-15.03385417 10.52213542 -12.96614583 10.47786458 -10.8984375 10.43359375 C-9.92132813 10.40394531 -8.94421875 10.37429687 -7.9375 10.34375 C-7.03902344 10.32505859 -6.14054687 10.30636719 -5.21484375 10.28710938 C-2.79571274 10.20260484 -2.79571274 10.20260484 -1 8 C-0.54188325 6.02764667 -0.54188325 6.02764667 -0.375 3.875 C-0.25125 2.59625 -0.1275 1.3175 0 0 Z " fill="#DCD397" transform="translate(70,90)"/>
<path d="M0 0 C6.0739355 0.20246452 11.96728612 -0.30772136 18 -1 C18 -0.34 18 0.32 18 1 C18.66 1 19.32 1 20 1 C19.67 1.66 19.34 2.32 19 3 C8.77 2.67 -1.46 2.34 -12 2 C-12 1.67 -12 1.34 -12 1 C-7.43466714 -0.84787282 -4.77837484 -0.95567497 0 0 Z " fill="#C5AD71" transform="translate(15,68)"/>
<path d="M0 0 C6.93 0.495 6.93 0.495 14 1 C12.02 1.99 12.02 1.99 10 3 C9.01 2.67 8.02 2.34 7 2 C6.67 3.32 6.34 4.64 6 6 C1.125 3.375 1.125 3.375 0 0 Z " fill="#A27A42" transform="translate(5,32)"/>
<path d="M0 0 C1.60332791 -0.08121924 3.20784026 -0.13929134 4.8125 -0.1875 C6.15248047 -0.23970703 6.15248047 -0.23970703 7.51953125 -0.29296875 C10.41647515 0.04918998 11.22555028 0.75393573 13 3 C12.67 3.99 12.34 4.98 12 6 C11.34 6 10.68 6 10 6 C9.67 5.01 9.34 4.02 9 3 C6.03 2.67 3.06 2.34 0 2 C0 1.34 0 0.68 0 0 Z " fill="#8E6D4A" transform="translate(91,32)"/>
<path d="M0 0 C1.98 0.99 3.96 1.98 6 3 C4 5 4 5 0.5 5.3125 C-0.655 5.209375 -1.81 5.10625 -3 5 C-3.66 4.01 -4.32 3.02 -5 2 C-3.68 2 -2.36 2 -1 2 C-0.67 1.34 -0.34 0.68 0 0 Z " fill="#DAC992" transform="translate(39,98)"/>
<path d="M0 0 C1.99965715 0.03703069 4.00056665 0.04760556 6 0 C6 0.66 6 1.32 6 2 C0.06 2 -5.88 2 -12 2 C-12 1.67 -12 1.34 -12 1 C-7.46005295 -0.83759761 -4.75529295 -0.99068603 0 0 Z " fill="#A9864F" transform="translate(15,68)"/>
<path d="M0 0 C0 6.6 0 13.2 0 20 C-0.33 20 -0.66 20 -1 20 C-1.06058594 18.87980469 -1.12117188 17.75960937 -1.18359375 16.60546875 C-1.26801424 15.13280016 -1.35266149 13.66014456 -1.4375 12.1875 C-1.47681641 11.44951172 -1.51613281 10.71152344 -1.55664062 9.95117188 C-1.74381035 6.76928658 -1.98720793 4.03837622 -3 1 C-1 0 -1 0 0 0 Z " fill="#CFBC84" transform="translate(71,70)"/>
<path d="M0 0 C1.09570312 0.19464844 2.19140625 0.38929687 3.3203125 0.58984375 C4.16335937 0.74582031 5.00640625 0.90179688 5.875 1.0625 C5.875 1.3925 5.875 1.7225 5.875 2.0625 C1.255 2.0625 -3.365 2.0625 -8.125 2.0625 C-8.125 1.4025 -8.125 0.7425 -8.125 0.0625 C-5.2144446 -1.3927777 -3.16650948 -0.57266661 0 0 Z " fill="#C5AE75" transform="translate(79.125,67.9375)"/>
<path d="M0 0 C0.33 0.99 0.66 1.98 1 3 C3.31 3 5.62 3 8 3 C7.67 3.66 7.34 4.32 7 5 C3.9375 5.625 3.9375 5.625 1 6 C0.67 4.02 0.34 2.04 0 0 Z " fill="#C2AD7A" transform="translate(70,30)"/>
<path d="M0 0 C0.66 0 1.32 0 2 0 C1.01 2.97 0.02 5.94 -1 9 C-1.33 9 -1.66 9 -2 9 C-2.25 3.375 -2.25 3.375 0 0 Z " fill="#7E623F" transform="translate(2,33)"/>
<path d="M0 0 C0.66 0.99 1.32 1.98 2 3 C0 5 0 5 -3.125 5.125 C-4.548125 5.063125 -4.548125 5.063125 -6 5 C-4.68 4.67 -3.36 4.34 -2 4 C-2 3.01 -2 2.02 -2 1 C-1.34 0.67 -0.68 0.34 0 0 Z " fill="#8F683A" transform="translate(102,65)"/>
</svg>
